<svg width="21" height="21" viewBox="0 0 21 21" fill="none" xmlns="http://www.w3.org/2000/svg">
<path d="M9.66548 0H11.2954C11.5341 0.0368193 11.7729 0.0765611 12.0122 0.109874C17.5866 0.882495 21.6328 6.21311 20.8809 11.7997C20.115 17.4804 15.1827 21.4984 9.49035 20.9145C5.11207 20.4651 2.13485 18.0333 0.587857 13.9113C0.279042 13.0861 0.190309 12.1784 0 11.3088V9.67705C0.0192644 9.57302 0.045534 9.47016 0.058377 9.36555C0.296797 7.15979 1.22764 5.0865 2.71711 3.44371C4.20658 1.80091 6.17796 0.673198 8.34791 0.222669C8.78223 0.133251 9.22415 0.0748075 9.66548 0ZM8.5855 5.04951C8.66898 5.2301 8.71393 5.32302 8.7548 5.41828C9.00348 5.99746 9.28019 6.5667 9.4921 7.15873C9.78048 7.95706 9.97604 8.78053 9.85112 9.64199C9.74487 10.3719 9.36192 10.9862 8.99998 11.6057C8.88323 11.8021 8.78457 12.0066 8.67716 12.2077C8.91066 12.2339 9.14417 12.2743 9.37768 12.2836C10.3532 12.3204 10.2078 12.0709 10.2224 13.1848C10.2253 13.4028 10.1313 13.4706 9.9235 13.4648C9.52596 13.4537 9.12782 13.4683 8.73028 13.4595C8.12841 13.4455 7.6935 13.0638 7.64096 12.4619C7.6182 12.2024 7.50436 12.1632 7.2907 12.165C6.5534 12.1708 5.8161 12.165 5.0788 12.165C4.3415 12.165 4.3199 12.1948 4.45591 12.9212C4.77232 14.636 6.18854 15.8265 7.95095 15.837C9.68766 15.8469 11.4244 15.8294 13.1605 15.8446C13.8248 15.8504 14.3619 15.6108 14.7571 15.0983C15.1094 14.6371 15.4364 14.1572 15.7367 13.6606C16.0286 13.1801 16.3963 12.7839 16.9147 12.5764C17.2603 12.4367 17.3456 12.217 17.3158 11.8792C17.2872 11.5513 17.2767 11.5285 16.9509 11.6226C16.1336 11.8564 15.3164 12.11 14.4903 12.3292C14.1488 12.4204 13.8604 12.563 13.638 12.8388C13.2481 13.321 12.7519 13.5086 12.1267 13.4735C11.3946 13.4332 11.3929 13.4642 11.3964 12.7196C11.3964 12.2901 11.3999 12.269 11.8313 12.2947C12.1879 12.3164 12.4769 12.2363 12.704 11.9523C13.007 11.5741 13.3339 11.2141 13.6158 10.8208C14.2323 9.95992 14.2113 9.07158 13.6824 8.17155C13.2539 7.44218 12.7192 6.78878 12.0443 6.29786C11.5189 5.91798 11.3158 5.50127 11.3847 4.87301C11.4279 4.47735 11.1512 4.20851 10.8155 4.20442C10.4652 4.19974 10.2317 4.46098 10.2212 4.88353C10.2166 5.06236 10.2212 5.24179 10.2212 5.47381L8.5855 5.04951ZM5.1325 10.9114C5.26736 10.9488 5.31347 10.9727 5.35901 10.9727C6.22123 10.9727 7.08288 10.9786 7.94511 10.9727C7.98715 10.9722 8.02859 10.9626 8.06657 10.9445C8.10456 10.9265 8.1382 10.9004 8.16519 10.8681C8.51136 10.2942 8.85462 9.71972 8.80734 9.00495C8.74896 8.14876 8.46875 7.3586 8.12666 6.58423C8.10915 6.54449 8.06828 6.51644 7.99006 6.43812L5.1325 10.9114Z" fill="black"/>
</svg>
